<?xml version="1.0" encoding="utf-8"?>
<!-- Generator: Adobe Illustrator 18.0.0, SVG Export Plug-In . SVG Version: 6.00 Build 0)  -->
<!DOCTYPE svg PUBLIC "-//W3C//DTD SVG 1.1//EN" "http://www.w3.org/Graphics/SVG/1.1/DTD/svg11.dtd">
<svg version="1.1" id="Слой_1" xmlns="http://www.w3.org/2000/svg" xmlns:xlink="http://www.w3.org/1999/xlink" x="0px" y="0px"
	 viewBox="0 0 308.2 263.9" enable-background="new 0 0 308.2 263.9" xml:space="preserve">
<g>
	<g>
		<path fill="#43678C" d="M277.7,225.7c-7.1,20.3-27,33.9-48.9,33.7c-51.3-0.4-102.7-0.1-154-0.2c-20.5,0-34.6-10.7-44.7-27.7
			c-0.8-1.4-1.8-2.8-1.3-4.5c-0.1-2.4,1.8-2.4,3.3-2.7c1.9-0.4,3.9-0.2,5.9-0.2c76.9,0,153.9,0,230.8,0
			C271.8,224.1,275.1,223.5,277.7,225.7z"/>
		<path fill="#597DA3" d="M25.2,48.5c1.3-8.9,3.4-17.6,9.7-24.5c2.1-1.5,4.6-1.6,7-1.6c73.9,0,147.8,0,221.7,0c2.5,0,4.9,0.1,7,1.6
			c6,7,8.6,15.3,9.4,24.3c-2.6,2.5-5.8,1.7-8.8,1.7c-53.9,0.1-107.9,0-161.8,0c-25.4,0-50.8,0-76.3,0C30.4,50.1,27.6,50.6,25.2,48.5
			z"/>
		<path fill="#5B7EA5" d="M270.7,24c-78.6,0-157.2,0-235.8,0C44.9,10,58.9,3.9,75.5,3.5c13-0.3,26.1-0.1,39.1-0.1
			c38.2,0,76.3-0.1,114.5,0C246.3,3.5,260.5,10,270.7,24z"/>
		<path fill="#45698F" d="M277.7,225.7c-80.8,0-161.7,0-242.5,0c-2.1,0-4.6-1-6.4,1.3c-3.3-5.6-4.1-11.6-3.7-18
			c2.7-2.2,5.9-1.6,8.9-1.6c65.5,0,131,0,196.6,0c14.2,0,28.4,0,42.5,0c2.6,0,5.3-0.4,7.5,1.6C280.9,214.8,279.6,220.3,277.7,225.7z
			"/>
		<path fill="#567AA1" d="M25.2,48.5c82.7,0,165.3,0,248,0c2.3,0,4.6-0.1,6.8-0.1c1.4,6.9,0.6,13.8,0.5,20.7c-2.4,2-5.2,1.5-7.9,1.6
			c-22.3,0.1-44.6-0.1-67,0.1c-2.2-0.2-3.9-1.5-5.6-2.8c-7.9-6.2-17.1-8.5-26.9-9.1c-20.5-1.3-41-1-61.5-1c-6.1,0-8.3-0.3-7.9,7
			c0.1,1.4-0.3,2.9-1.7,3.9c-2.1,1.1-4.4,0.9-6.7,0.9c-21,0-41.9,0-62.9,0c-2.6,0-5.3,0.3-7.4-1.6C24.8,61.5,24.8,55,25.2,48.5z"/>
		<path fill="#466A90" d="M280.6,209.1c-85.2,0-170.3,0-255.5,0c0-2.6,0-5.2,0-7.8c1.7-1.6,3.9-1.6,6-1.6c21.8,0,43.7,0,65.5,0
			c1.8,0,3.6,0,5.3,0.8c2.3,2.7,5.3,3.3,8.7,3.3c18.7-0.1,37.5,0.1,56.2-0.1c13.4-0.2,26.2-2.8,37.4-11c1.3-1,2.7-1.8,4.4-2
			c21.3,0.5,42.7,0.1,64,0.2c2.7,0,5.6-0.5,7.9,1.6C280.6,198,280.6,203.5,280.6,209.1z"/>
		<path fill="#496C93" d="M25.1,191.4c0-7.2,0-14.4,0-21.5c1.9-1.7,4.2-1.6,6.5-1.6c21.6,0,43.2,0,64.8,0c2.1,0,4.3-0.1,6.1,1.2
			c2.5,7.4,2.2,14.7,0.2,22.1c-1.5,1.2-3.3,1.3-5.1,1.3c-22.3,0.1-44.6,0.1-67,0C28.7,193,26.7,192.9,25.1,191.4z"/>
		<path fill="#4B6F95" d="M102.5,169.9c-25.8,0-51.5,0-77.3,0c0-6.2,0-12.4,0-18.6c1.9-1.7,4.2-1.6,6.5-1.6c21.6,0,43.2,0,64.8,0
			c2.1,0,4.2-0.1,6.1,1.2C104.8,157.2,105.1,163.6,102.5,169.9z"/>
		<path fill="#4D7197" d="M102.5,151.3c-25.8,0-51.6,0-77.3,0c0-5.9,0-11.7,0-17.6c1.9-1.7,4.2-1.6,6.5-1.6c21.6,0,43.2,0,64.8,0
			c2.1,0,4.2-0.1,6.1,1.2C104.9,139.3,105,145.3,102.5,151.3z"/>
		<path fill="#4F7399" d="M102.5,133.7c-25.8,0-51.6,0-77.3,0c0-5.9,0-11.7,0-17.6c1.9-1.7,4.2-1.6,6.5-1.6c21.6,0,43.2,0,64.8,0
			c2.1,0,4.2-0.1,6.1,1.2C104.9,121.7,105,127.7,102.5,133.7z"/>
		<path fill="#53779D" d="M25.1,99.4c0-5.5,0-11.1,0-16.6c1.9-1.7,4.2-1.6,6.5-1.6c21.6,0,43.2,0,64.8,0c2.1,0,4.3-0.1,6.1,1.2
			c2.4,5.7,2.2,11.5,0.2,17.3c-1.7,1.3-3.6,1.3-5.6,1.3c-22,0.1-44,0.1-66,0C29,101,26.9,100.9,25.1,99.4z"/>
		<path fill="#51759B" d="M25.1,99.4c25.8,0,51.6,0,77.3,0c2.5,5.5,2.5,11.1,0,16.6c-25.8,0-51.6,0-77.3,0
			C25.1,110.5,25.1,104.9,25.1,99.4z"/>
		<path fill="#55789F" d="M205.1,70.4c1.4-2.1,3.5-1.3,5.4-1.3c23.4,0,46.8,0,70.1,0c0,5.9,0,11.7,0,17.6c-2.2,1.9-4.9,1.5-7.5,1.5
			c-16.9,0-33.9,0-50.8,0c-7.3,0-7.3,0-9,7.1c-0.2,0.8-0.6,1.5-1.2,2.1c-2.3,0.2-2.2-1.7-2.1-2.9c0.2-7.9-0.9-15.4-5-22.3
			C204.6,71.7,204.8,71,205.1,70.4z"/>
		<path fill="#486C92" d="M280.6,192.4c-22.1,0-44.1,0-66.2,0c-2.1,0-4.2,0.2-6.1-1c-0.5-1,0-2,0.6-2.6c3.9-4,6.7-8.5,8.9-13.6
			c0.7-1.6,2-2.5,3.7-2.7c18.2-0.6,36.4-0.2,54.6-0.2c1.6,0,3.2,0.3,4.5,1.5C280.6,180,280.6,186.2,280.6,192.4z"/>
		<path fill="#53769D" d="M211.3,97.4c1.1-1.1,0.8-2.4,0.8-3.7c0.1-7.7-1.1-7.1,7.5-7.1c20.3,0,40.6,0,61,0c0,5.9,0,11.7,0,17.6
			c-1.9,1.7-4.2,1.6-6.5,1.6c-19,0-38,0-57,0c-2.4,0-4.9,0.1-6.9-1.7C208.6,101.6,208.8,99.3,211.3,97.4z"/>
		<path fill="#4E7299" d="M280.6,123.9c0,5.2,0,10.4,0,15.7c-1.4,1.3-3.2,1.5-5,1.5c-19,0-38,0.3-57-0.2c-0.6-0.1-1.4-0.1-1.8-0.5
			c-5.4-5-11-9.9-17.6-13.3c-1.1-0.6-1.3-1.8-0.5-2.9c1.9-2,4.5-1.8,6.9-1.8c22.8-0.1,45.7,0,68.5,0
			C276.4,122.3,278.7,122.2,280.6,123.9z"/>
		<path fill="#55799F" d="M102.5,82.7c-25.8,0-51.6,0-77.3,0c0-4.9,0-9.8,0-14.7c25.8,0,51.6,0,77.3,0
			C104.9,73,104.9,77.9,102.5,82.7z"/>
		<path fill="#4A6E94" d="M280.6,173.8c-20.3,0-40.5,0-60.8,0c-1.6-5.7,0.2-11.1,1.3-16.6c1.3-2.5,3.7-2.5,5.9-2.5
			c16.2-0.1,32.4-0.1,48.7,0c1.8,0,3.6,0.2,5,1.5C280.6,162.1,280.6,167.9,280.6,173.8z"/>
		<path fill="#4C7096" d="M280.6,156.2c-17.9,0-35.8,0-53.7,0c-1.9,0-4.5-1-5.1,2.2c-0.7-0.1-1.4-0.4-1.5-1.1
			c-0.7-6-3.2-11.6-3.8-17.7c21.3-0.1,42.7-0.1,64-0.2C280.6,145.1,280.6,150.6,280.6,156.2z"/>
		<path fill="#51749B" d="M209.9,103.2c2.1,1.2,4.4,1.1,6.7,1.1c21.3,0,42.7,0,64,0c0,3.6,0,7.2,0,10.8c-1.9,1.7-4.2,1.5-6.5,1.6
			c-20.8,0-41.6,0-62.4,0c-2.3,0-4.6,0.1-6.6-1.2c-1.1-0.8-1.8-2.1-1.1-3.3C205.7,109,206.7,105.3,209.9,103.2z"/>
		<path fill="#476A90" d="M25.1,191.4c25.8,0,51.5,0,77.3,0c2.1,3.3,2.1,6.5,0,9.8c-25.8,0-51.5,0-77.3,0
			C25.1,198,25.1,194.7,25.1,191.4z"/>
		<path fill="#50749A" d="M204,114c2.1,1.2,4.4,1.1,6.7,1.1c23.3,0,46.7,0,70,0c0,2.9,0,5.9,0,8.8c-25.5,0-51,0-76.5,0
			c-2,0-4.3-0.6-5.7,1.8c-2.1,1.6-3.9,0.3-5.7-0.7c-1.7-0.9-1.7-2.5-0.2-3.4C196.4,119.1,199.4,115.4,204,114z"/>
		<path fill="#FEFEFE" d="M204,114c-3.6,3.7-7.8,6.7-12.6,9.2c2.4,1.7,4.8,2,7.1,2.5c7,3.5,13.6,7.4,18.1,14
			c3.4,5.8,4.3,12.2,5.2,18.7c-0.7,5.1-1.3,10.2-2,15.4c-2.7,6.6-6.5,12.6-11.6,17.7c-12.1,10.1-26.5,13.6-41.8,13.7
			c-19.9,0.1-39.8,0-59.7,0.1c-3.1,0-4.5-0.9-4.3-4c0-3.3,0-6.5,0-9.8c0-7.2,0-14.4,0-21.5c0-6.2,0-12.4,0-18.6c0-5.9,0-11.7,0-17.6
			c0-5.9,0-11.7,0-17.6c0-5.5,0-11.1,0-16.6c0-5.5,0-11.1,0-16.6c0-4.9,0-9.8,0-14.7c0.1-1,0.2-1.9,0.2-2.9c0.1-8.6,0.1-8.6,8.9-8.6
			c20.5,0.1,41-0.4,61.4,0.7c12.2,0.6,23.3,4.1,32.1,13.1c6,8.1,7,17.4,6.2,27.1c-0.5,1.9-0.9,3.9-1.4,5.8
			C208,106.8,206,110.4,204,114z"/>
		<path fill="#52769C" d="M164.5,85.6c6.9,2.7,9.9,8,9.2,15.2c-0.7,8.5-5.9,13.6-15.1,14.2c-6,0.4-12,0-18,0
			c-1.1-8.7-0.2-17.5-0.5-26.3c-0.1-3.1,2.2-3.3,4.3-3.4C151.2,85.1,157.8,85.1,164.5,85.6z"/>
		<path fill="#4C7096" d="M140.7,177.6c-1.6-0.8-0.8-2.3-0.9-3.5c-0.1-9.8,0.1-19.5-0.1-29.3c-0.1-3.5,1.1-4.5,4.4-4.3
			c7.6,0.4,15.3-0.1,22.9,0.8c11,1.3,16.3,7.6,15.8,18.7c-1.9,1.7-4.2,1.5-6.5,1.5c-8.8,0-17.6,0-26.4,0c-7.6,0-7.6,0.1-7.7,7.5
			C142.1,172,142.8,175.1,140.7,177.6z"/>
		<path fill="#4A6E94" d="M140.7,177.6c0-4.2,0.3-8.5-0.1-12.7c-0.3-4.1,1.3-4.9,5-4.9c12.4,0.2,24.8,0.1,37.1,0.1
			c-0.8,11.1-5.6,15.7-19.3,17.4C156,178.4,148.3,177.6,140.7,177.6z"/>
		<path fill="#56799F" d="M164.5,85.6c-6.4,1.7-12.9,1.1-19.4,1c-3.4,0-4.6,0.9-4.5,4.4c0.2,8,0.1,15.9,0.1,23.9
			c-1.9-3-0.7-6.2-0.8-9.4c-0.2-6.2-0.1-12.4,0-18.6c0-1.5-0.2-3.2,2-3.1C149.4,84.3,157.1,82.8,164.5,85.6z"/>
	</g>
</g>
</svg>
