<?xml version="1.0" encoding="utf-8"?>
<!-- Generator: Adobe Illustrator 18.0.0, SVG Export Plug-In . SVG Version: 6.00 Build 0)  -->
<!DOCTYPE svg PUBLIC "-//W3C//DTD SVG 1.1//EN" "http://www.w3.org/Graphics/SVG/1.1/DTD/svg11.dtd">
<svg version="1.1" id="Слой_1" xmlns="http://www.w3.org/2000/svg" xmlns:xlink="http://www.w3.org/1999/xlink" x="0px" y="0px"
	 viewBox="194.7 460.7 4.5 4.5" enable-background="new 194.7 460.7 4.5 4.5" xml:space="preserve">
<g id="Слой_1_1_">
	<g>
		<path display="none" fill="#FEFEFE" d="M196.7,465.9c-0.9,0-1.8,0-2.7,0c0,0-0.1,0-0.1-0.1c0-1.8,0-3.6,0-5.4c0,0,0,0,0,0
			c1.8,0,3.6,0,5.4,0c0,0,0.1,0,0.1,0c0,1.8,0,3.6,0,5.4c0,0,0,0,0,0C198.5,465.9,197.6,465.9,196.7,465.9z M198.7,463.1
			L198.7,463.1c0-0.1,0-0.2,0-0.2c0-0.3,0-0.6,0-1c0-0.1,0-0.1-0.1-0.1c-0.6-0.4-1.3-0.7-1.9-1.1c0,0,0,0-0.1,0
			c-0.6,0.4-1.3,0.7-1.9,1.1c-0.1,0.1-0.1,0.1-0.1,0.1c0,0.8,0,1.6,0,2.5c0,0,0,0.1,0,0.1c0.6,0.4,1.3,0.7,1.9,1.1c0,0,0.1,0,0.1,0
			c0.6-0.4,1.3-0.7,1.9-1.1c0,0,0,0,0-0.1C198.7,463.9,198.7,463.6,198.7,463.1z"/>
		<path fill="#9422DD" d="M198.7,463.1c0,0.4,0,0.8,0,1.2c0,0,0,0.1,0,0.1c-0.6,0.4-1.3,0.7-1.9,1.1c0,0-0.1,0-0.1,0
			c-0.6-0.4-1.3-0.7-1.9-1.1c0,0,0,0,0-0.1c0-0.8,0-1.6,0-2.5c0-0.1,0-0.1,0.1-0.1c0.6-0.4,1.3-0.7,1.9-1.1c0,0,0,0,0.1,0
			c0.6,0.4,1.3,0.7,1.9,1.1c0,0,0.1,0.1,0.1,0.1c0,0.3,0,0.6,0,1C198.7,463,198.7,463.1,198.7,463.1L198.7,463.1z M197.4,464.3
			c0.1,0,0.1,0,0.1,0c0.1-0.1,0.2-0.2,0.3-0.3c0-0.1,0-0.1,0-0.2c-0.1-0.1-0.3-0.2-0.4-0.3c-0.1-0.1-0.2,0-0.3,0.1
			c0,0,0,0.1-0.1,0.1c-0.1,0.1-0.1,0.1-0.2,0.1c-0.1,0-0.3-0.1-0.4-0.2c-0.1-0.1-0.3-0.3-0.3-0.5c0-0.1,0-0.1,0.1-0.2
			c0,0,0.1-0.1,0.1-0.1c0.1-0.1,0.1-0.1,0.1-0.2c0-0.1-0.1-0.1-0.1-0.2c-0.1-0.1-0.1-0.2-0.2-0.3c-0.1-0.1-0.2-0.1-0.3,0
			c-0.1,0-0.1,0.1-0.2,0.1c-0.1,0.1-0.1,0.2-0.1,0.4c0.1,0.3,0.2,0.5,0.4,0.8c0.1,0.2,0.3,0.4,0.4,0.5
			C196.7,463.9,197,464.1,197.4,464.3C197.4,464.3,197.4,464.3,197.4,464.3z M197.9,462.9c0,0,0-0.1,0-0.1c-0.1-0.6-0.5-1-1.2-1
			c-0.1,0-0.1,0-0.1,0.1s0,0.1,0.1,0.1c0.1,0,0.1,0,0.2,0c0.4,0.1,0.7,0.4,0.8,0.8c0,0.1,0,0.2,0,0.2c0,0.1,0,0.1,0.1,0.1
			C197.9,463.1,197.9,463,197.9,462.9C197.9,463,197.9,462.9,197.9,462.9z M197.6,462.8c0-0.3-0.1-0.5-0.4-0.7
			c-0.1,0-0.2-0.1-0.3-0.1c-0.1,0-0.1,0-0.1,0.1c0,0,0,0.1,0.1,0.1c0,0,0,0,0,0c0.3,0,0.5,0.2,0.6,0.4c0,0.1,0,0.2,0,0.2
			c0,0.1,0,0.1,0.1,0.1S197.6,462.9,197.6,462.8C197.6,462.9,197.6,462.8,197.6,462.8z M197.3,462.8c0-0.2-0.2-0.4-0.4-0.4
			c-0.1,0-0.1,0-0.1,0.1c0,0,0,0.1,0.1,0.1c0.2,0,0.2,0.1,0.3,0.3c0,0.1,0,0.1,0.1,0.1C197.3,462.9,197.3,462.8,197.3,462.8z"/>
		<path fill="#F3E7FB" d="M197.4,464.3c0,0-0.1,0-0.1,0c-0.4-0.1-0.7-0.4-1-0.6c-0.2-0.1-0.3-0.3-0.4-0.5c-0.2-0.2-0.3-0.5-0.4-0.8
			c-0.1-0.1,0-0.3,0.1-0.4c0.1-0.1,0.1-0.1,0.2-0.1c0.1-0.1,0.2-0.1,0.3,0c0.1,0.1,0.2,0.2,0.2,0.3c0,0.1,0.1,0.1,0.1,0.2
			c0,0.1,0,0.1-0.1,0.2c0,0-0.1,0.1-0.1,0.1c-0.1,0.1-0.1,0.1-0.1,0.2c0.1,0.2,0.2,0.4,0.3,0.5c0.1,0.1,0.2,0.2,0.4,0.2
			c0.1,0,0.1,0,0.2-0.1c0,0,0-0.1,0.1-0.1c0.1-0.1,0.2-0.1,0.3-0.1c0.2,0.1,0.3,0.2,0.4,0.3c0.1,0.1,0.1,0.1,0,0.2
			c-0.1,0.1-0.2,0.2-0.3,0.3C197.6,464.3,197.5,464.3,197.4,464.3z"/>
		<path fill="#F3E7FB" d="M197.9,462.9C197.9,463,197.9,463,197.9,462.9c0,0.1,0,0.2-0.1,0.2c-0.1,0-0.1,0-0.1-0.1
			c0-0.1,0-0.2,0-0.2c-0.1-0.4-0.4-0.7-0.8-0.8c-0.1,0-0.1,0-0.2,0c-0.1,0-0.1,0-0.1-0.1s0-0.1,0.1-0.1c0.6,0,1.1,0.4,1.2,1
			C197.9,462.8,197.9,462.9,197.9,462.9z"/>
		<path fill="#F3E7FB" d="M197.6,462.8C197.6,462.8,197.6,462.8,197.6,462.8c0,0.1,0,0.2-0.1,0.2s-0.1,0-0.1-0.1c0-0.1,0-0.2,0-0.2
			c-0.1-0.3-0.3-0.4-0.6-0.4c0,0,0,0,0,0c-0.1,0-0.1,0-0.1-0.1c0-0.1,0-0.1,0.1-0.1c0.1,0,0.2,0,0.4,0.1
			C197.5,462.3,197.6,462.5,197.6,462.8z"/>
		<path fill="#F3E7FB" d="M197.3,462.8c0,0.1,0,0.1-0.1,0.1c0,0-0.1,0-0.1-0.1c0-0.2-0.1-0.2-0.3-0.3c-0.1,0-0.1,0-0.1-0.1
			c0,0,0-0.1,0.1-0.1C197.1,462.4,197.3,462.5,197.3,462.8z"/>
	</g>
</g>
<g id="Слой_2">
</g>
</svg>
