<?xml version="1.0" encoding="utf-8"?>
<!-- Generator: Adobe Illustrator 18.0.0, SVG Export Plug-In . SVG Version: 6.00 Build 0)  -->
<!DOCTYPE svg PUBLIC "-//W3C//DTD SVG 1.1//EN" "http://www.w3.org/Graphics/SVG/1.1/DTD/svg11.dtd">
<svg version="1.1" id="Слой_1" xmlns="http://www.w3.org/2000/svg" xmlns:xlink="http://www.w3.org/1999/xlink" x="0px" y="0px"
	 viewBox="10.6 145.1 574.1 574.1" enable-background="new 10.6 145.1 574.1 574.1" xml:space="preserve">
<g id="Слой_1_1_">
	<g>
		<path display="none" fill="#FEFEFE" d="M297.6,719.2c-93.5,0-187.1,0-280.6,0c-4.3,0-6.4,0-6.4-6.4c0-187.1,0-376.3,0-563.4
			c0-4.3,2.1-4.3,4.3-4.3c187.1,0,376.3,0,563.4,0c4.3,0,6.4,0,6.4,4.3c0,189.2,0,376.3,0,565.5c0,4.3,0,4.3-4.3,4.3
			C486.9,719.2,391.2,719.2,297.6,719.2z M508.1,432.1L508.1,432.1c0-10.6,0-17,0-25.5c0-34,0-68,0-102c0-6.4-2.1-8.5-6.4-12.8
			c-68-38.3-136.1-76.5-202-116.9c-2.1-2.1-4.3-2.1-6.4,0c-68,40.4-136.1,76.5-202,116.9c-6.4,6.4-6.4,8.5-6.4,12.8
			c0,85,0,170.1,0,259.4c0,4.3,2.1,6.4,4.3,8.5c68,40.4,136.1,76.5,202,116.9c4.3,2.1,6.4,2.1,8.5,0c68-40.4,136.1-76.5,202-116.9
			c4.3-2.1,4.3-4.3,4.3-8.5C508.1,517.2,508.1,476.8,508.1,432.1z"/>
		<path fill="#9422DD" d="M508.1,432.1c0,44.6,0,85,0,129.7c0,4.3-2.1,6.4-4.3,8.5c-68,40.4-136.1,76.5-202,116.9
			c-4.3,2.1-6.4,2.1-8.5,0c-68-40.4-136.1-76.5-202-116.9c-4.3-2.1-4.3-4.3-4.3-8.5c0-85,0-170.1,0-259.4c0-6.4,2.1-10.6,6.4-12.8
			c65.9-38.3,133.9-76.5,199.8-114.8c2.1-2.1,4.3-2.1,8.5,0c68,40.4,136.1,76.5,202,116.9c4.3,2.1,6.4,6.4,6.4,12.8c0,34,0,68,0,102
			C508.1,415.1,508.1,423.6,508.1,432.1L508.1,432.1z M376.3,551.2c6.4,0,12.8-2.1,14.9-4.3c14.9-8.5,23.4-19.1,31.9-36.1
			c4.3-8.5,2.1-14.9-4.3-21.3c-14.9-14.9-31.9-25.5-46.8-36.1c-12.8-6.4-21.3-4.3-29.8,6.4c-2.1,2.1-4.3,6.4-6.4,8.5
			c-6.4,8.5-10.6,8.5-19.1,6.4c-14.9-4.3-27.6-14.9-40.4-23.4c-14.9-14.9-27.6-29.8-34-51c-2.1-8.5,0-14.9,6.4-19.1
			c4.3-2.1,8.5-6.4,12.8-10.6c6.4-6.4,8.5-14.9,6.4-21.3c-2.1-8.5-8.5-14.9-12.8-21.3c-8.5-12.8-14.9-23.4-25.5-34
			c-10.6-8.5-17-8.5-29.8-2.1c-8.5,4.3-14.9,10.6-19.1,14.9C168,317.3,165.8,328,170.1,345c12.8,29.8,23.4,57.4,44.6,82.9
			c14.9,19.1,29.8,38.3,46.8,53.1c31.9,27.6,68,48.9,106.3,65.9C372.1,551.2,374.2,551.2,376.3,551.2z M425.2,408.8
			c0-4.3,0-8.5-2.1-14.9c-6.4-63.8-57.4-108.4-121.2-108.4c-6.4,0-10.6,2.1-10.6,8.5s4.3,8.5,10.6,8.5c8.5,0,14.9,0,21.3,2.1
			c42.5,8.5,76.5,42.5,80.8,85c2.1,8.5,2.1,17,2.1,25.5c0,6.4,4.3,10.6,10.6,10.6c4.3,0,8.5-4.3,8.5-10.6
			C425.2,413,425.2,410.9,425.2,408.8z M395.4,396c-2.1-31.9-14.9-55.3-44.6-70.2c-10.6-4.3-25.5-8.5-36.1-8.5
			c-6.4,0-10.6,2.1-10.6,8.5c0,4.3,4.3,8.5,8.5,8.5c2.1,0,2.1,0,4.3,0c27.6,4.3,48.9,17,59.5,44.6c2.1,8.5,4.3,17,4.3,25.5
			c0,6.4,4.3,8.5,8.5,8.5c4.2,0,8.5-4.3,8.5-8.5C395.4,402.4,395.4,398.1,395.4,396z M363.5,391.8c0-25.5-17-44.6-42.5-44.6
			c-6.4,0-10.6,4.3-10.6,8.5c0,4.2,4.3,8.5,8.5,8.5c17,2.1,25.5,10.6,27.6,27.6c0,6.4,4.3,10.6,8.5,10.6
			C361.4,402.4,363.5,398.1,363.5,391.8z"/>
		<path fill="#F3E7FB" d="M376.3,551.2c-4.3,0-8.5,0-10.6-2.1c-40.4-14.9-76.5-38.3-106.3-65.9c-17-14.9-34-34-46.8-53.1
			c-19.1-25.5-34-53.1-44.6-82.9c-6.4-14.9-2.1-27.6,10.6-38.3c6.4-6.4,14.9-10.6,19.1-14.9c10.6-6.4,19.1-6.4,29.8,2.1
			c10.6,10.6,17,21.3,25.5,34c4.3,6.4,8.5,14.9,12.8,21.3c4.3,8.5,2.1,14.9-6.4,21.3c-4.3,4.3-8.5,6.4-12.8,10.6
			c-8.5,6.4-8.5,12.8-6.4,19.1c6.4,21.3,17,38.3,34,51c12.8,10.6,23.4,17,40.4,23.4c10.6,2.1,14.9,2.1,19.1-6.4
			c2.1-2.1,4.3-6.4,6.4-8.5c8.5-10.6,19.1-12.8,29.8-6.4c17,10.6,34,21.3,46.8,36.1c8.5,6.4,8.5,14.9,4.3,21.3
			c-8.5,14.9-17,25.5-31.9,36.1C389.1,551.2,382.7,551.2,376.3,551.2z"/>
		<path fill="#F3E7FB" d="M425.2,408.8c0,4.3,0,6.4,0,8.5c0,6.4-2.1,10.6-8.5,10.6s-10.6-4.3-10.6-10.6c0-8.5,0-17-2.1-25.5
			c-8.5-44.6-40.4-76.5-80.8-85c-8.5-2.1-14.9-2.1-21.3-2.1s-10.6-2.1-10.6-8.5s4.3-8.5,10.6-8.5c63.8,0,114.8,44.6,121.2,108.4
			C425.2,398.1,425.2,404.5,425.2,408.8z"/>
		<path fill="#F3E7FB" d="M395.4,396c0,2.1,0,4.3,0,8.5c0,4.3-4.3,8.5-8.5,8.5c-4.3,0-8.5-4.3-8.5-8.5c0-8.5,0-17-4.3-25.5
			c-10.6-27.6-29.8-42.5-59.5-44.6c-2.1,0-2.1,0-4.3,0c-6.4,0-10.6-4.3-8.5-8.5c0-6.4,4.3-8.5,10.6-8.5c14.9,2.1,25.5,4.3,38.3,10.6
			C378.4,340.7,393.3,366.2,395.4,396z"/>
		<path fill="#F3E7FB" d="M363.5,391.8c0,6.4-4.3,10.6-8.5,10.6c-4.2,0-8.5-4.3-8.5-10.6c-2.1-17-8.5-25.5-27.6-27.6
			c-6.4,0-8.5-4.3-8.5-8.5c0-4.3,4.3-8.5,10.6-8.5C344.4,349.2,363.5,366.2,363.5,391.8z"/>
	</g>
</g>
<g id="Слой_2">
</g>
</svg>
