<?xml version="1.0" encoding="utf-8"?>
<!-- Generator: Adobe Illustrator 18.0.0, SVG Export Plug-In . SVG Version: 6.00 Build 0)  -->
<!DOCTYPE svg PUBLIC "-//W3C//DTD SVG 1.1//EN" "http://www.w3.org/Graphics/SVG/1.1/DTD/svg11.dtd">
<svg version="1.1" id="Слой_1" xmlns="http://www.w3.org/2000/svg" xmlns:xlink="http://www.w3.org/1999/xlink" x="0px" y="0px"
	 viewBox="0 0 115.7 116.2" enable-background="new 0 0 115.7 116.2" xml:space="preserve">
<g>
	<path fill="#FEFCFC" d="M115.3,39.6c0-0.3,0.1-0.6,0.1-0.9c0-0.8,0-1.6,0-2.4c-0.5-1.2-1-2.5-1.2-4c-0.1-0.8-0.2-1.5-0.2-2.2
		c-0.5,0.1-1,0.1-1.6,0.1c-4.5-0.2-9-0.2-13.5,0c-2.6,0.1-3.6-0.7-3.5-3.4c0.2-5-0.1-10,0.1-15c0.2-4-2.5-3-4.7-3.1
		C88.5,8.6,86,8.1,86.3,12c0.3,4.8-0.1,9.7,0.1,14.5c0.1,2.8-0.7,3.9-3.6,3.7c-4.8-0.2-9.7,0.1-14.5-0.1c-4-0.2-3,2.6-3.1,4.7
		c-0.1,2.3-0.1,4.3,3.2,4.1c4.5-0.2,9,0.1,13.5-0.1c3.4-0.2,4.8,0.7,4.5,4.4c-0.3,4.6,0.2,9.3-0.1,14c-0.3,4.4,2.7,3.1,4.9,3.3
		c2.5,0.2,4.5,0.2,4.3-3.5c-0.3-5,0-10-0.1-15c-0.1-2.4,0.8-3.2,3.2-3.2c4.7,0.1,9.3,0.1,14,0C113.8,38.8,114.7,39,115.3,39.6z"/>
	<path fill="#DD4E3B" d="M112.1,38.4c-4.7,0.1-9.3,0.1-14,0c-2.4-0.1-3.2,0.7-3.2,3.2c0.1,5-0.2,10,0.1,15c0.2,3.6-1.7,3.7-4.3,3.5
		c-2.2-0.2-5.2,1.1-4.9-3.3c0.3-4.6-0.2-9.3,0.1-14c0.2-3.6-1.1-4.6-4.5-4.4c-4.5,0.3-9-0.1-13.5,0.1c-3.4,0.2-3.4-1.8-3.2-4.1
		c0.1-2.2-0.9-4.9,3.1-4.7c4.8,0.2,9.7-0.1,14.5,0.1c2.9,0.1,3.7-1,3.6-3.7c-0.2-4.8,0.2-9.7-0.1-14.5c-0.2-3.9,2.2-3.3,4.5-3.3
		c2.2,0.1,4.8-0.9,4.7,3.1c-0.2,5,0.1,10-0.1,15c-0.1,2.7,0.9,3.5,3.5,3.4c4.5-0.2,9-0.2,13.5,0c2.7,0.1,3.9-0.8,3.8-3.7
		c-0.2-5.2,0.1-10.3-0.1-15.5c-0.2-7.8-3-10.5-10.7-10.5c-31,0-62,0-92.9,0C3.2,0.1,0,3.3,0,12.2c0,31,0,62,0,92.9
		c0,7.5,2.1,9.7,9.8,10.1c2,0.1,4,0.1,6,0.1c13.1,0.1,26.3,0.2,39.4,0.3c1.4-6.3-0.9-11.2-5.8-14.9c-4.7-3.7-9.4-7.6-14.6-10.5
		c-5.6-3.1-11.7-0.6-17.6,0.3c-6,0.9-11.4,3.5-15.8,8C-0.2,89.7,0.8,88.2,9,86c5.8-1.6,11.9-0.8,18.4-2.2c-3.4-4.8-5.6-9.6-3.7-15.5
		c0.7-2.4-1.9-1.5-3.2-1.5c-6.3,0-12.1-1.7-17.5-5.1c-1.6-1-2.3-1.9-2.3-3.9c0.1-12.2,0.1-24.3,0-36.5c0-2.1,1-3.3,2.5-4.5
		c5.1-4,10.9-6.6,17.2-7.6c14.8-2.3,29.8-0.7,45.1-1.2c-4.9,6-6.3,6.6-17.6,8.5c5.3,5.6,8.8,11.7,9.1,19.5c0.3,8.4-2.6,15.3-8.7,21
		c-0.9,0.8-1.7,1.5-2.6,2.3c-9.4,7.9-9.1,14.2,1.2,20.7c5.3,3.3,9.7,7.5,13.7,12.2c6,7,6.7,14.9,4,23.4c0.7-0.1,1.3-0.3,2-0.3
		c13.5,0,27,0,40.5-0.2c6.2-0.1,8.5-2.2,8.5-8c0.1-21.8,0-43.6,0.1-65.5C115.7,39.1,114.6,38.3,112.1,38.4z"/>
	<path fill="#F6F2F2" d="M55.2,115.7c1.4-6.3-0.9-11.2-5.8-14.9c-4.7-3.7-9.4-7.6-14.6-10.5c-5.6-3.1-11.7-0.6-17.6,0.3
		c-6,0.9-11.4,3.5-15.8,8C-0.2,89.7,0.8,88.2,9,86c5.8-1.6,11.9-0.8,18.4-2.2c-3.4-4.8-5.6-9.6-3.7-15.5c0.7-2.4-1.9-1.5-3.2-1.5
		c-6.3,0-12.1-1.7-17.5-5.1c-1.6-1-2.3-1.9-2.3-3.9c0.1-12.2,0.1-24.3,0-36.5c0-2.1,1-3.3,2.5-4.5c5.1-4,10.9-6.6,17.2-7.6
		c14.8-2.3,29.8-0.7,45.1-1.2c-4.9,6-6.3,6.6-17.6,8.5c5.3,5.6,8.8,11.7,9.1,19.5c0.3,8.4-2.6,15.3-8.7,21c-0.9,0.8-1.7,1.5-2.6,2.3
		c-9.4,7.9-9.1,14.2,1.2,20.7c5.3,3.3,9.7,7.5,13.7,12.2c6,7,6.7,14.9,4,23.4C61.5,116.3,58.4,116.3,55.2,115.7z M43.1,41.2
		c-0.8-7.8-3.3-16.6-10.7-23.2c-4.8-4.3-10.3-5.1-16.3-2.4c-5.5,2.5-8.8,7.3-8.9,12.8C7.1,35.7,8.3,43.1,11.9,50
		c3.7,7,12.1,11.3,20,9.5C39.4,57.7,43.5,51.7,43.1,41.2z"/>
	<path fill="#DD4E3B" d="M43.1,41.2c0.4,10.5-3.7,16.6-11.2,18.3C24,61.4,15.6,57,11.9,50c-3.6-6.9-4.8-14.3-4.7-21.7
		c0.1-5.5,3.4-10.3,8.9-12.8c5.9-2.6,11.5-1.8,16.3,2.4C39.8,24.6,42.3,33.4,43.1,41.2z"/>
</g>
</svg>
