<?xml version="1.0" encoding="utf-8"?>
<!-- Generator: Adobe Illustrator 18.0.0, SVG Export Plug-In . SVG Version: 6.00 Build 0)  -->
<!DOCTYPE svg PUBLIC "-//W3C//DTD SVG 1.1//EN" "http://www.w3.org/Graphics/SVG/1.1/DTD/svg11.dtd">
<svg version="1.1" id="Слой_1" xmlns="http://www.w3.org/2000/svg" xmlns:xlink="http://www.w3.org/1999/xlink" x="0px" y="0px"
	 viewBox="1087.5 749.5 368.3 368.3" enable-background="new 1087.5 749.5 368.3 368.3" xml:space="preserve">
<g display="none">
	<defs>
		<rect id="SVGID_1_" x="1478.7" y="6.4" width="375.3" height="383.8"/>
	</defs>
	<clipPath id="SVGID_2_" display="inline">
		<use xlink:href="#SVGID_1_"  overflow="visible"/>
	</clipPath>
	<g display="inline" clip-path="url(#SVGID_2_)">
	</g>
</g>
<g id="_126087832">
	<path id="_125657208" fill="#55789E" d="M1252.8,910.5h28c11.9,0,21-10.9,21-23.8c0-15.6-13.4-21-29.4-21h-19.6L1252.8,910.5
		L1252.8,910.5z"/>
	<path id="_69744136" fill="#4E7299" d="M1327,923.1c12.6,6.1,15.9,3.8,28.3,13.7c5.7,4.6,13.7,18.3,13.7,28.3v19.6
		c0,34-41.9,54.6-78.4,54.6h-91V826.5h86.8c31.6,0,68.6,12.3,68.6,42v9.8c0,13.9-3,19.2-8.7,27.7
		C1339.2,916.9,1331.1,917.5,1327,923.1L1327,923.1z M1145,750.9l-5.6,1.4l-4.2,1.4l-2.8,1.4l-4.2,1.4l-2.8,1.4l-1.4,1.4l-2.8,1.4
		l-2.8,1.4l-1.4,1.4l-1.4,1.4l-1.4,1.4l-2.8,1.4l-1.4,1.4l-1.4,1.4l-1.4,1.4l-1.4,1.4l-1.4,1.4l-1.4,2.8l-1.4,1.4l-1.4,1.4l-1.4,2.8
		l-1.4,1.4l-1.4,2.8l-1.4,2.8l-1.4,2.8l-1.4,2.8l-1.4,2.8l-1.4,7l-1.4,5.6v245.1l1.4,7l1.4,5.6l1.4,2.8l1.4,4.2l1.4,2.8l1.4,2.8
		l1.4,1.4l1.4,2.8l1.4,1.4l1.4,2.8l1.4,1.4l1.4,1.4l1.4,1.4l1.4,1.4l1.4,1.4l1.4,1.4l1.4,1.4l1.4,1.4l1.4,1.4l1.4,1.4l2.8,1.4
		l1.4,1.4l2.8,1.4l1.4,1.4l2.8,1.4l2.8,1.4l2.8,1.4l4.2,1.4l4.2,1.4l7,1.4h247.9l5.6-1.4l5.6-1.4l2.8-1.4l4.2-1.4l2.8-1.4l2.8-1.4
		l1.4-1.4l2.8-1.4l1.4-1.4l2.8-1.4l1.4-1.4l1.4-1.4l1.4-1.4l1.4-1.4l1.4-1.4l1.4-1.4l1.4-1.4l1.4-1.4l1.4-1.4l1.4-2.8l1.4-1.4
		l1.4-1.4l1.4-2.8l1.4-2.8l1.4-2.8l1.4-2.8l1.4-2.8l1.4-4.2l1.4-5.6l1.4-8.4V813.9l-1.4-7l-1.4-5.6v-1.4v-1.4l-1.4-2.8l-1.4-1.4
		l-1.4-4.2l-1.4-2.8l-1.4-1.4l-1.4-2.8l-1.4-1.4l-1.4-2.8l-1.4-1.4l-1.4-1.4l-1.4-1.4l-1.4-1.4l-1.4-1.4l-1.4-1.4l-1.4-1.4l-1.4-1.4
		l-1.4-1.4l-1.4-1.4l-1.4-1.4l-2.8-1.4l-1.4-1.4l-2.8-1.4l-2.8-1.4l-2.8-1.4l-2.8-1.4l-2.8-1.4l-5.6-1.4l-4.2-1.4l-11.2-1.4h-231.1
		L1145,750.9z"/>
	<path id="_124785944" fill="#FDFDFE" d="M1278,1000.2h-25.2V947h25.2c16.7,0,36.4,5.3,36.4,21v5.6
		C1314.4,994.9,1299.2,1000.2,1278,1000.2z M1252.8,865.7h19.6c16,0,29.4,5.4,29.4,21c0,12.9-9.1,23.8-21,23.8h-28L1252.8,865.7
		L1252.8,865.7z M1327,923.1c4.1-5.6,12.2-6.3,19.3-17.1c5.6-8.5,8.7-13.9,8.7-27.7v-9.8c0-29.7-37-42-68.6-42h-86.8v212.9h91
		c36.5,0,78.4-20.6,78.4-54.6v-19.6c0-10-8-23.7-13.7-28.3C1342.9,927,1339.7,929.2,1327,923.1L1327,923.1z"/>
	<path id="_125657160" fill="#4D7197" d="M1278,1000.2c21.1,0,36.4-5.3,36.4-26.6V968c0-15.7-19.7-21-36.4-21h-25.2v53.2H1278z"/>
</g>
<g id="_126087688" display="none">
	<path id="_125658144" display="inline" fill="none" stroke="#000000" stroke-width="0.2471" d="M-972.1-688.2h28
		c11.9,0,21-10.9,21-23.8c0-15.6-13.4-21-29.4-21h-19.6L-972.1-688.2L-972.1-688.2z"/>
	<path id="_125658888" display="inline" fill="none" stroke="#000000" stroke-width="0.2471" d="M-897.9-675.6
		c12.6,6.1,15.9,3.8,28.3,13.7c5.7,4.6,13.7,18.3,13.7,28.3v19.6c0,34-41.9,54.6-78.4,54.6h-91v-212.9h86.8
		c31.6,0,68.6,12.3,68.6,42v9.8c0,13.9-3,19.2-8.7,27.7C-885.7-681.8-893.8-681.2-897.9-675.6z M-1079.9-847.8l-5.6,1.4l-4.2,1.4
		l-2.8,1.4l-4.2,1.4l-2.8,1.4l-1.4,1.4l-2.8,1.4l-2.8,1.4l-1.4,1.4l-1.4,1.4l-1.4,1.4l-2.8,1.4l-1.4,1.4l-1.4,1.4l-1.4,1.4l-1.4,1.4
		l-1.4,1.4l-1.4,2.8l-1.4,1.4l-1.4,1.4l-1.4,2.8l-1.4,1.4l-1.4,2.8l-1.4,2.8l-1.4,2.8l-1.4,2.8l-1.4,2.8l-1.4,7l-1.4,5.6v245.1
		l1.4,7l1.4,5.6l1.4,2.8l1.4,4.2l1.4,2.8l1.4,2.8l1.4,1.4l1.4,2.8l1.4,1.4l1.4,2.8l1.4,1.4l1.4,1.4l1.4,1.4l1.4,1.4l1.4,1.4l1.4,1.4
		l1.4,1.4l1.4,1.4l1.4,1.4l1.4,1.4l2.8,1.4l1.4,1.4l2.8,1.4l1.4,1.4l2.8,1.4l2.8,1.4l2.8,1.4l4.2,1.4l4.2,1.4l7,1.4h247.9l5.6-1.4
		l5.6-1.4l2.8-1.4l4.2-1.4l2.8-1.4l2.8-1.4l1.4-1.4l2.8-1.4l1.4-1.4l2.8-1.4l1.4-1.4l1.4-1.4l1.4-1.4l1.4-1.4l1.4-1.4l1.4-1.4
		l1.4-1.4l1.4-1.4l1.4-1.4l1.4-2.8l1.4-1.4l1.4-1.4l1.4-2.8l1.4-2.8l1.4-2.8l1.4-2.8l1.4-2.8l1.4-4.2l1.4-5.6l1.4-8.4v-239.5l-1.4-7
		l-1.4-5.6v-1.4v-1.4l-1.4-2.8l-1.4-1.4l-1.4-4.2l-1.4-2.8l-1.4-1.4l-1.4-2.8l-1.4-1.4l-1.4-2.8l-1.4-1.4l-1.4-1.4l-1.4-1.4
		l-1.4-1.4l-1.4-1.4l-1.4-1.4l-1.4-1.4l-1.4-1.4l-1.4-1.4l-1.4-1.4l-1.4-1.4l-2.8-1.4l-1.4-1.4l-2.8-1.4l-2.8-1.4l-2.8-1.4l-2.8-1.4
		l-2.8-1.4l-5.6-1.4l-4.2-1.4l-11.2-1.4h-231.1L-1079.9-847.8L-1079.9-847.8z"/>
	<path id="_125658912" display="inline" fill="none" stroke="#000000" stroke-width="0.2471" d="M-946.9-598.5h-25.2v-53.2h25.2
		c16.7,0,36.4,5.3,36.4,21v5.6C-910.5-603.8-925.8-598.5-946.9-598.5z M-972.1-733h19.6c16,0,29.4,5.4,29.4,21
		c0,12.9-9.1,23.8-21,23.8h-28L-972.1-733L-972.1-733z M-897.9-675.6c4.1-5.6,12.2-6.3,19.3-17.1c5.6-8.5,8.7-13.9,8.7-27.7v-9.8
		c0-29.7-37-42-68.6-42h-86.8v212.9h91c36.5,0,78.4-20.6,78.4-54.6v-19.6c0-10-8-23.7-13.7-28.3C-882-671.7-885.3-669.5-897.9-675.6
		z"/>
	<path id="_125658672" display="inline" fill="none" stroke="#000000" stroke-width="0.2471" d="M-946.9-598.5
		c21.1,0,36.4-5.3,36.4-26.6v-5.6c0-15.7-19.7-21-36.4-21h-25.2v53.2H-946.9z"/>
</g>
</svg>
